:FULLY-SPECIFIED
:FORCE-ALL-JOINTS-BE-3DOF
:DEGREES
577
root 6.14536 16.3914 -3.66021 -89.8724 87.3638 -95.2921
lfemur -18.1601 6.70181 -19.3197
ltibia 45.2881 0 0
lfoot -30.9354 10.2094 0
ltoes 1.84871 0 0
rfemur -46.5935 -9.1549 14.8042
rtibia 56.2224 0 0
rfoot 7.73148 9.08936 0
rtoes -21.5884 0 0
lowerback 4.71976 -1.13338 -5.17245
upperback 1.81222 -1.67146 2.02815
thorax -0.549323 -0.861619 5.08416
lowerneck -5.87202 -12.7179 -3.62731
upperneck 12.3284 -17.526 6.02639
head 5.55547 -8.32844 1.18493
lclavicle -2.01788e-15 2.08448e-15 0
lhumerus -27.3741 -28.0595 88.9319
lradius 53.6897 0 0
lwrist 22.3087 0 0
lhand -15.9935 -2.08183 0
lfingers 7.12502 0 0
lthumb 10.1894 27.4191 0
rclavicle -2.01788e-15 2.08448e-15 0
rhumerus 17.4254 19.8381 -75.3521
rradius 129.321 0 0
rwrist -37.1029 0 0
rhand -22.8977 -18.8348 0
rfingers 7.12502 0 0
rthumb 3.52959 -768.542 0
578
root 6.15318 16.3906 -3.63734 -89.1317 87.3547 -94.5472
lfemur -18.0807 6.99852 -19.2862
ltibia 45.2597 0 0
lfoot -31.0002 10.4146 0
ltoes 1.70096 0 0
rfemur -46.4487 -9.34016 14.8857
rtibia 56.0697 0 0
rfoot 7.72587 9.07352 0
rtoes -21.6535 0 0
lowerback 4.69537 -1.14325 -5.2175
upperback 1.82601 -1.68623 2.03227
thorax -0.519011 -0.869738 5.11423
lowerneck -5.83481 -12.7446 -3.64133
upperneck 12.3576 -17.5682 6.07339
head 5.56508 -8.34633 1.19834
lclavicle -2.08991e-15 2.20517e-15 0
lhumerus -27.1296 -27.9923 88.6104
lradius 53.6591 0 0
lwrist 22.5108 0 0
lhand -16.2735 -2.11333 0
lfingers 7.12502 0 0
lthumb 9.92054 27.418 0
rclavicle -2.08991e-15 2.20517e-15 0
rhumerus 18.0284 19.5539 -75.1666
rradius 129.673 0 0
rwrist -37.7471 0 0
rhand -23.2056 -18.9001 0
rfingers 7.12502 0 0
rthumb 3.23325 -768.63 0
579
root 6.16079 16.3899 -3.61505 -88.4039 87.3457 -93.8152
lfemur -18.0034 7.28812 -19.2536
ltibia 45.2321 0 0
lfoot -31.0634 10.6147 0
ltoes 1.55688 0 0
rfemur -46.3074 -9.52062 14.9652
rtibia 55.9205 0 0
rfoot 7.72015 9.05826 0
rtoes -21.7173 0 0
lowerback 4.67156 -1.15288 -5.26147
upperback 1.83944 -1.70064 2.03625
thorax -0.489458 -0.87766 5.14355
lowerneck -5.79855 -12.7706 -3.65499
upperneck 12.3861 -17.6093 6.11921
head 5.57446 -8.36375 1.21142
lclavicle -2.16483e-15 2.32161e-15 0
lhumerus -26.8912 -27.9268 88.297
lradius 53.6292 0 0
lwrist 22.7079 0 0
lhand -16.5464 -2.14403 0
lfingers 7.12502 0 0
lthumb 9.6586 27.417 0
rclavicle -2.16483e-15 2.32161e-15 0
rhumerus 18.6161 19.2768 -74.9857
rradius 130.016 0 0
rwrist -38.3753 0 0
rhand -23.5058 -18.9639 0
rfingers 7.12502 0 0
rthumb 2.94438 -768.716 0
580
root 6.16818 16.3892 -3.59336 -87.6895 87.3368 -93.0968
lfemur -17.9282 7.57037 -19.2218
ltibia 45.2052 0 0
lfoot -31.1249 10.8094 0
ltoes 1.41657 0 0
rfemur -46.1699 -9.69613 15.0427
rtibia 55.7748 0 0
rfoot 7.71433 9.04359 0
rtoes -21.7798 0 0
lowerback 4.64835 -1.16226 -5.30433
upperback 1.85249 -1.71468 2.0401
thorax -0.460689 -0.88538 5.17208
lowerneck -5.76328 -12.7959 -3.66829
upperneck 12.4139 -17.6493 6.16384
head 5.58362 -8.3807 1.22416
lclavicle -2.24269e-15 2.43365e-15 0
lhumerus -26.659 -27.8633 87.9921
lradius 53.6002 0 0
lwrist 22.8997 0 0
lhand -16.8119 -2.17392 0
lfingers 7.12502 0 0
lthumb 9.40376 27.416 0
rclavicle -2.24269e-15 2.43365e-15 0
rhumerus 19.188 19.0073 -74.8097
rradius 130.349 0 0
rwrist -38.9868 0 0
rhand -23.7979 -19.0259 0
rfingers 7.12502 0 0
rthumb 2.66324 -768.8 0
581
root 6.17535 16.3885 -3.57228 -86.9891 87.3279 -92.3925
lfemur -17.8551 7.84505 -19.1909
ltibia 45.1791 0 0
lfoot -31.1846 10.9986 0
ltoes 1.28015 0 0
rfemur -46.0362 -9.86655 15.1181
rtibia 55.6329 0 0
rfoot 7.70839 9.02953 0
rtoes -21.8408 0 0
lowerback 4.62576 -1.1714 -5.34603
upperback 1.86516 -1.72834 2.04381
thorax -0.432728 -0.892891 5.1998
lowerneck -5.72902 -12.8205 -3.6812
upperneck 12.441 -17.6881 6.20723
head 5.59255 -8.39715 1.23654
lclavicle -2.32357e-15 2.54114e-15 0
lhumerus -26.4333 -27.8017 87.6959
lradius 53.572 0 0
lwrist 23.086 0 0
lhand -17.0697 -2.20297 0
lfingers 7.12502 0 0
lthumb 9.15624 27.415 0
rclavicle -2.32357e-15 2.54114e-15 0
rhumerus 19.7437 18.7454 -74.6386
rradius 130.673 0 0
rwrist -39.5811 0 0
rhand -24.0817 -19.0863 0
rfingers 7.12502 0 0
rthumb 2.39006 -768.881 0
582
root 6.18229 16.3878 -3.55183 -86.3032 87.319 -91.7029
lfemur -17.7843 8.11191 -19.161
ltibia 45.1538 0 0
lfoot -31.2425 11.1821 0
ltoes 1.14774 0 0
rfemur -45.9063 -10.0317 15.1914
rtibia 55.4948 0 0
rfoot 7.70235 9.0161 0
rtoes -21.9004 0 0
lowerback 4.6038 -1.18027 -5.38655
upperback 1.87742 -1.74161 2.04737
thorax -0.4056 -0.900185 5.22669
lowerneck -5.6958 -12.8443 -3.69372
upperneck 12.4673 -17.7257 6.24934
head 5.60123 -8.4131 1.24855
lclavicle -2.40751e-15 2.64392e-15 0
lhumerus -26.2143 -27.7421 87.4087
lradius 53.5447 0 0
lwrist 23.2668 0 0
lhand -17.3197 -2.23115 0
lfingers 7.12502 0 0
lthumb 8.91627 27.414 0
rclavicle -2.40751e-15 2.64392e-15 0
rhumerus 20.2825 18.4914 -74.4727
rradius 130.988 0 0
rwrist -40.1578 0 0
rhand -24.3571 -19.1449 0
rfingers 7.12502 0 0
rthumb 2.12509 -768.96 0
